<?xml version="1.0" encoding="UTF-8" standalone="no"?>
<!-- Generator: Adobe Illustrator 15.0.0, SVG Export Plug-In . SVG Version: 6.00 Build 0)  -->

<svg
   xmlns:dc="http://purl.org/dc/elements/1.1/"
   xmlns:cc="http://creativecommons.org/ns#"
   xmlns:rdf="http://www.w3.org/1999/02/22-rdf-syntax-ns#"
   xmlns:svg="http://www.w3.org/2000/svg"
   xmlns="http://www.w3.org/2000/svg"
   xmlns:sodipodi="http://sodipodi.sourceforge.net/DTD/sodipodi-0.dtd"
   xmlns:inkscape="http://www.inkscape.org/namespaces/inkscape"
   version="1.1"
   x="0px"
   y="0px"
   width="17px"
   height="17px"
   viewBox="0 0 17 17"
   enable-background="new 0 0 17 17"
   xml:space="preserve"
   id="svg4534"
   sodipodi:docname="icon-search2.svg"
   inkscape:version="0.92.3 (2405546, 2018-03-11)"><metadata
   id="metadata4540"><rdf:RDF><cc:Work
       rdf:about=""><dc:format>image/svg+xml</dc:format><dc:type
         rdf:resource="http://purl.org/dc/dcmitype/StillImage" /><dc:title></dc:title></cc:Work></rdf:RDF></metadata><defs
   id="defs4538" /><sodipodi:namedview
   pagecolor="#ffffff"
   bordercolor="#666666"
   borderopacity="1"
   objecttolerance="10"
   gridtolerance="10"
   guidetolerance="10"
   inkscape:pageopacity="0"
   inkscape:pageshadow="2"
   inkscape:window-width="1920"
   inkscape:window-height="1017"
   id="namedview4536"
   showgrid="false"
   inkscape:zoom="49.882353"
   inkscape:cx="5.2423349"
   inkscape:cy="8.5"
   inkscape:window-x="-8"
   inkscape:window-y="-8"
   inkscape:window-maximized="1"
   inkscape:current-layer="svg4534" />
<g
   id="Layer_1">
</g>
<g
   id="Layer_2">
	<path
   fill="#ffffff"
   d="M17,15.586l-3.542-3.542C14.421,10.782,15,9.21,15,7.5C15,3.358,11.643,0,7.5,0C3.358,0,0,3.358,0,7.5   C0,11.643,3.358,15,7.5,15c1.71,0,3.282-0.579,4.544-1.542L15.586,17L17,15.586z M2,7.5C2,4.467,4.467,2,7.5,2   C10.532,2,13,4.467,13,7.5c0,3.032-2.468,5.5-5.5,5.5C4.467,13,2,10.532,2,7.5z"
   id="path4531" />
</g>
<path
   style="fill:#6a7180;fill-opacity:0;stroke-width:0.02004717"
   d="m 13.814915,15.220222 -1.771681,-1.771766 -0.232997,0.165135 c -1.113633,0.789281 -2.3818885,1.246329 -3.7612183,1.355451 -0.329363,0.02606 -1.0633484,0.01478 -1.3632876,-0.02096 C 5.1272818,14.762442 3.7649605,14.166218 2.5961085,13.158252 1.0502693,11.825188 0.11484405,9.8990294 0.02161047,7.8570347 -0.11785458,4.802482 1.5576045,2.0293854 4.3402608,0.70912298 5.6458123,0.08968943 7.2004434,-0.1271188 8.6792047,0.1040157 10.841846,0.44204264 12.782904,1.7525459 13.917382,3.640566 c 0.576982,0.960223 0.921877,2.0029164 1.041079,3.1474057 0.03163,0.3037188 0.03113,1.1301829 -8.74e-4,1.4333726 -0.14287,1.3534923 -0.625132,2.6123717 -1.411844,3.6854317 l -0.100502,0.137082 1.772329,1.772414 1.772329,1.772414 -0.701651,0.701651 -0.70165,0.701651 z M 8.2895047,12.953406 c 0.6734249,-0.108567 1.3069372,-0.320634 1.8443393,-0.617389 1.554361,-0.858321 2.586832,-2.3632815 2.82973,-4.1246962 0.048,-0.3480847 0.04819,-1.0800876 3.58e-4,-1.4233491 C 12.819614,5.7521675 12.413065,4.8141574 11.763625,4.0185642 10.889802,2.9480913 9.6641612,2.2546296 8.2755433,2.045024 7.9879572,2.0016143 7.2813767,1.9855813 6.9843403,2.0157255 5.3278329,2.183833 3.8705953,3.0480242 2.9429915,4.4123821 2.1493501,5.5797025 1.838156,6.9907502 2.0653777,8.3917453 c 0.1899349,1.1710923 0.742634,2.2202697 1.6157879,3.0672167 0.8682084,0.842151 1.9568409,1.360945 3.1749669,1.513051 0.3061407,0.03823 1.1486796,0.02729 1.4333726,-0.01861 z"
   id="path4542"
   inkscape:connector-curvature="0" /><path
   style="fill:#ffffff;fill-opacity:1;stroke-width:0.02004717"
   d="M 13.813013,15.208296 C 12.260722,13.65593 12.045315,13.447599 12.014849,13.469204 11.317784,13.963544 10.850392,14.225265 10.224057,14.47198 9.3923689,14.799583 8.6141147,14.956306 7.6981132,14.980647 6.8805862,15.002371 6.1849576,14.91547 5.4223689,14.696353 3.076934,14.022431 1.1721178,12.199036 0.40043654,9.8890846 -0.08199828,8.4449637 -0.11679469,6.8895561 0.30076408,5.4337032 0.9112077,3.3053411 2.4549185,1.537 4.4805424,0.64571169 5.1733678,0.34086384 5.8890526,0.14862288 6.7057783,0.04798847 7.0307596,0.00794529 8.029514,0.01441201 8.379717,0.05882687 c 1.71307,0.2172619 3.208513,0.94532293 4.411233,2.14762303 0.621611,0.6213929 1.073823,1.2570349 1.452223,2.0412844 0.382173,0.7920699 0.591061,1.5140625 0.705946,2.4400016 0.0414,0.3336801 0.03506,1.3672041 -0.01046,1.7040094 -0.173499,1.283857 -0.626104,2.4509327 -1.327959,3.4242397 -0.08197,0.113668 -0.149029,0.217393 -0.149029,0.2305 0,0.01311 0.791578,0.815448 1.759063,1.78298 l 1.759063,1.759148 -0.691442,0.691661 c -0.380294,0.380413 -0.696022,0.69166 -0.701618,0.69166 -0.0056,0 -0.803774,-0.793637 -1.773728,-1.763638 z M 8.1100052,12.973202 c 1.0414737,-0.121828 1.9574048,-0.498473 2.8056788,-1.153741 0.249706,-0.19289 0.732302,-0.679337 0.924467,-0.931843 0.622189,-0.817562 0.970223,-1.6435907 1.123392,-2.6662737 0.03665,-0.2446845 0.03665,-1.1987117 0,-1.4433962 C 12.831939,5.8992484 12.552058,5.1576781 12.089657,4.4625 11.856554,4.1120522 11.692697,3.9132456 11.378308,3.5994254 10.484869,2.7076042 9.3705718,2.1725066 8.0990566,2.0246934 7.7233833,1.9810215 7.028989,1.99564 6.6603424,2.0549813 4.9867172,2.3243864 3.5547144,3.3105922 2.7161347,4.771317 2.3783108,5.3597736 2.1552506,6.0128557 2.0410404,6.7478774 c -0.050815,0.3270304 -0.050815,1.1765072 0,1.5035377 0.2144943,1.3804194 0.8476754,2.5429609 1.8581341,3.4115949 0.8432365,0.724883 1.8609814,1.175781 2.952386,1.308013 0.3080653,0.03732 0.9485138,0.03843 1.2584447,0.0022 z"
   id="path994"
   inkscape:connector-curvature="0" /></svg>