<?xml version="1.0" encoding="UTF-8" standalone="no"?>
<!-- Generator: Adobe Illustrator 15.0.0, SVG Export Plug-In . SVG Version: 6.00 Build 0)  -->

<svg
   xmlns:dc="http://purl.org/dc/elements/1.1/"
   xmlns:cc="http://creativecommons.org/ns#"
   xmlns:rdf="http://www.w3.org/1999/02/22-rdf-syntax-ns#"
   xmlns:svg="http://www.w3.org/2000/svg"
   xmlns="http://www.w3.org/2000/svg"
   xmlns:sodipodi="http://sodipodi.sourceforge.net/DTD/sodipodi-0.dtd"
   xmlns:inkscape="http://www.inkscape.org/namespaces/inkscape"
   version="1.1"
   x="0px"
   y="0px"
   width="17px"
   height="17px"
   viewBox="0 0 17 17"
   enable-background="new 0 0 17 17"
   xml:space="preserve"
   id="svg4534"
   sodipodi:docname="icon-search1.svg"
   inkscape:version="0.92.3 (2405546, 2018-03-11)"><metadata
   id="metadata4540"><rdf:RDF><cc:Work
       rdf:about=""><dc:format>image/svg+xml</dc:format><dc:type
         rdf:resource="http://purl.org/dc/dcmitype/StillImage" /><dc:title></dc:title></cc:Work></rdf:RDF></metadata><defs
   id="defs4538" /><sodipodi:namedview
   pagecolor="#ffffff"
   bordercolor="#666666"
   borderopacity="1"
   objecttolerance="10"
   gridtolerance="10"
   guidetolerance="10"
   inkscape:pageopacity="0"
   inkscape:pageshadow="2"
   inkscape:window-width="1920"
   inkscape:window-height="1017"
   id="namedview4536"
   showgrid="false"
   inkscape:zoom="49.882353"
   inkscape:cx="5.2423349"
   inkscape:cy="8.5"
   inkscape:window-x="-8"
   inkscape:window-y="-8"
   inkscape:window-maximized="1"
   inkscape:current-layer="svg4534" />
<g
   id="Layer_1">
</g>
<g
   id="Layer_2">
	<path
   fill="#ee3643"
   d="M17,15.586l-3.542-3.542C14.421,10.782,15,9.21,15,7.5C15,3.358,11.643,0,7.5,0C3.358,0,0,3.358,0,7.5   C0,11.643,3.358,15,7.5,15c1.71,0,3.282-0.579,4.544-1.542L15.586,17L17,15.586z M2,7.5C2,4.467,4.467,2,7.5,2   C10.532,2,13,4.467,13,7.5c0,3.032-2.468,5.5-5.5,5.5C4.467,13,2,10.532,2,7.5z"
   id="path4531" />
</g>
<path
   style="fill:#6a7180;fill-opacity:0;stroke-width:0.02004717"
   d="m 13.814915,15.220222 -1.771681,-1.771766 -0.232997,0.165135 c -1.113633,0.789281 -2.3818885,1.246329 -3.7612183,1.355451 -0.329363,0.02606 -1.0633484,0.01478 -1.3632876,-0.02096 C 5.1272818,14.762442 3.7649605,14.166218 2.5961085,13.158252 1.0502693,11.825188 0.11484405,9.8990294 0.02161047,7.8570347 -0.11785458,4.802482 1.5576045,2.0293854 4.3402608,0.70912298 5.6458123,0.08968943 7.2004434,-0.1271188 8.6792047,0.1040157 10.841846,0.44204264 12.782904,1.7525459 13.917382,3.640566 c 0.576982,0.960223 0.921877,2.0029164 1.041079,3.1474057 0.03163,0.3037188 0.03113,1.1301829 -8.74e-4,1.4333726 -0.14287,1.3534923 -0.625132,2.6123717 -1.411844,3.6854317 l -0.100502,0.137082 1.772329,1.772414 1.772329,1.772414 -0.701651,0.701651 -0.70165,0.701651 z M 8.2895047,12.953406 c 0.6734249,-0.108567 1.3069372,-0.320634 1.8443393,-0.617389 1.554361,-0.858321 2.586832,-2.3632815 2.82973,-4.1246962 0.048,-0.3480847 0.04819,-1.0800876 3.58e-4,-1.4233491 C 12.819614,5.7521675 12.413065,4.8141574 11.763625,4.0185642 10.889802,2.9480913 9.6641612,2.2546296 8.2755433,2.045024 7.9879572,2.0016143 7.2813767,1.9855813 6.9843403,2.0157255 5.3278329,2.183833 3.8705953,3.0480242 2.9429915,4.4123821 2.1493501,5.5797025 1.838156,6.9907502 2.0653777,8.3917453 c 0.1899349,1.1710923 0.742634,2.2202697 1.6157879,3.0672167 0.8682084,0.842151 1.9568409,1.360945 3.1749669,1.513051 0.3061407,0.03823 1.1486796,0.02729 1.4333726,-0.01861 z"
   id="path4542"
   inkscape:connector-curvature="0" /></svg>